<svg width="377" height="100" viewBox="0 0 377 100" fill="none" xmlns="http://www.w3.org/2000/svg">
<g clip-path="url(#clip0_141_217)">
<rect width="100" height="100" rx="24" fill="#361ECB"/>
<path d="M31 63C31 41.4609 48.4609 24 70 24C91.5391 24 109 41.4609 109 63V64.5C109 86.8675 90.8675 105 68.5 105H31V63Z" fill="#FFE5E5"/>
<ellipse cx="70" cy="65.5" rx="18" ry="17.5" fill="#361ECB"/>
<rect x="31" y="24" width="16" height="40" fill="#FFE5E5"/>
</g>
<path d="M361.182 85.0554C357.69 85.0554 354.71 84.3315 352.24 82.8839C349.813 81.4363 347.961 79.4352 346.684 76.8805C345.449 74.2833 344.832 71.2816 344.832 67.8754C344.832 64.4692 345.471 61.4675 346.748 58.8703C348.068 56.2305 349.941 54.1655 352.368 52.6753C354.838 51.1851 357.797 50.44 361.245 50.44C363.8 50.44 366.035 50.9084 367.951 51.8451C369.867 52.7392 371.464 53.9739 372.741 55.5493C374.061 57.1246 375.041 58.9129 375.679 60.914C376.318 62.9152 376.616 65.0227 376.573 67.2368C376.531 67.7477 376.488 68.2586 376.446 68.7695C376.403 69.2379 376.339 69.7488 376.254 70.3023H352.624C352.751 71.7925 353.134 73.155 353.773 74.3897C354.454 75.6245 355.391 76.6038 356.583 77.3276C357.818 78.0514 359.351 78.4133 361.182 78.4133C362.246 78.4133 363.268 78.2856 364.247 78.0301C365.226 77.7321 366.078 77.3063 366.802 76.7528C367.568 76.1993 368.079 75.4968 368.335 74.6452H376.126C375.573 77.0721 374.551 79.052 373.061 80.5847C371.57 82.1175 369.782 83.2458 367.696 83.9696C365.652 84.6935 363.481 85.0554 361.182 85.0554ZM352.751 64.4905H368.973C368.973 63.0855 368.654 61.8081 368.015 60.6586C367.377 59.509 366.461 58.6148 365.269 57.9762C364.119 57.2949 362.714 56.9543 361.054 56.9543C359.266 56.9543 357.775 57.3162 356.583 58.0401C355.391 58.7639 354.476 59.7006 353.837 60.8502C353.198 61.9997 352.836 63.2132 352.751 64.4905Z" fill="currentColor"/>
<path d="M322.277 100C319.807 100 317.487 99.5955 315.315 98.7865C313.186 98.0202 311.377 96.7854 309.887 95.0823C308.439 93.4218 307.46 91.2716 306.949 88.6319H314.932C315.188 89.6537 315.698 90.484 316.465 91.1226C317.231 91.7613 318.125 92.2084 319.147 92.4638C320.212 92.7619 321.297 92.9109 322.404 92.9109C324.491 92.9109 326.13 92.4851 327.322 91.6336C328.557 90.782 329.43 89.6111 329.941 88.1209C330.451 86.6733 330.707 85.0766 330.707 83.331V80.1377C329.941 81.3724 328.961 82.3517 327.769 83.0755C326.62 83.7993 325.385 84.3103 324.065 84.6083C322.788 84.8638 321.51 84.9915 320.233 84.9915C316.742 84.9915 313.889 84.2251 311.675 82.6923C309.503 81.1595 307.907 79.1158 306.885 76.5612C305.863 73.964 305.352 71.1113 305.352 68.0031C305.352 64.7673 305.906 61.8294 307.013 59.1896C308.162 56.5073 309.865 54.3784 312.122 52.803C314.421 51.2277 317.295 50.44 320.744 50.44C322.745 50.44 324.618 50.8019 326.364 51.5257C328.152 52.207 329.643 53.2501 330.835 54.6552L331.346 50.9509H338.562V81.6705C338.562 85.4598 338.009 88.717 336.902 91.442C335.838 94.2095 334.113 96.3171 331.729 97.7647C329.344 99.2549 326.194 100 322.277 100ZM321.83 78.094C323.831 78.094 325.491 77.6256 326.811 76.6889C328.131 75.7096 329.132 74.4323 329.813 72.857C330.494 71.239 330.835 69.4933 330.835 67.6199C330.835 65.704 330.494 63.9796 329.813 62.4468C329.174 60.914 328.195 59.7006 326.875 58.8064C325.598 57.9123 323.937 57.4653 321.893 57.4653C319.722 57.4653 317.998 57.9549 316.72 58.9342C315.443 59.9135 314.506 61.2121 313.91 62.83C313.357 64.4054 313.08 66.0872 313.08 67.8754C313.08 69.7488 313.378 71.4732 313.974 73.0486C314.57 74.5813 315.507 75.8161 316.784 76.7528C318.061 77.6469 319.743 78.094 321.83 78.094Z" fill="currentColor"/>
<path d="M281.372 85.0554C279.797 85.0554 278.306 84.8425 276.901 84.4167C275.496 83.9909 274.24 83.3736 273.133 82.5646C272.026 81.713 271.132 80.6699 270.451 79.4352C269.812 78.1578 269.493 76.6676 269.493 74.9645C269.493 72.7931 269.919 71.0261 270.77 69.6637C271.622 68.2586 272.771 67.1942 274.219 66.4704C275.709 65.7465 277.391 65.2569 279.264 65.0014C281.138 64.7034 283.096 64.5544 285.14 64.5544H291.718C291.718 63.0642 291.484 61.7869 291.016 60.7224C290.547 59.6154 289.802 58.7426 288.78 58.1039C287.801 57.4653 286.524 57.1459 284.948 57.1459C283.927 57.1459 282.969 57.2737 282.075 57.5291C281.223 57.742 280.478 58.1039 279.839 58.6148C279.243 59.0832 278.817 59.7006 278.562 60.467H270.579C270.877 58.7213 271.473 57.2311 272.367 55.9963C273.304 54.719 274.432 53.6759 275.752 52.8669C277.114 52.0579 278.604 51.4619 280.222 51.0787C281.84 50.6529 283.48 50.44 285.14 50.44C290.036 50.44 293.592 51.8451 295.806 54.6552C298.062 57.4653 299.191 61.4037 299.191 66.4704V84.6083H292.293L292.101 80.2654C291.122 81.713 289.951 82.7775 288.589 83.4587C287.226 84.1399 285.906 84.5657 284.629 84.736C283.352 84.9489 282.266 85.0554 281.372 85.0554ZM282.905 78.7326C284.608 78.7326 286.119 78.4133 287.439 77.7746C288.759 77.136 289.802 76.2419 290.569 75.0923C291.378 73.9427 291.782 72.6228 291.782 71.1326V70.0469H285.651C284.629 70.0469 283.607 70.0894 282.585 70.1746C281.606 70.2172 280.712 70.3875 279.903 70.6855C279.094 70.941 278.434 71.3455 277.923 71.899C277.455 72.4525 277.221 73.2402 277.221 74.262C277.221 75.2839 277.476 76.1141 277.987 76.7528C278.541 77.3914 279.243 77.8811 280.095 78.2217C280.989 78.5623 281.925 78.7326 282.905 78.7326Z" fill="currentColor"/>
<path d="M250.924 85.0554C249.306 85.0554 247.688 84.8851 246.07 84.5444C244.495 84.2038 243.005 83.6503 241.6 82.8839C240.195 82.0749 239.024 80.9892 238.087 79.6268C237.151 78.2643 236.533 76.5612 236.235 74.5175H244.091C244.431 75.4542 244.963 76.2206 245.687 76.8167C246.454 77.3702 247.326 77.7959 248.306 78.094C249.328 78.3494 250.328 78.4772 251.307 78.4772C251.904 78.4772 252.542 78.4346 253.223 78.3494C253.947 78.2643 254.607 78.094 255.203 77.8385C255.842 77.583 256.353 77.2211 256.736 76.7528C257.119 76.2419 257.311 75.5819 257.311 74.7729C257.311 74.0065 257.098 73.4105 256.672 72.9847C256.246 72.5163 255.672 72.1544 254.948 71.899C254.224 71.6009 253.351 71.3668 252.329 71.1964C250.499 70.8132 248.54 70.4088 246.454 69.983C244.367 69.5146 242.558 68.7908 241.025 67.8115C240.386 67.4284 239.833 66.9813 239.365 66.4704C238.896 65.9594 238.492 65.4059 238.151 64.8098C237.853 64.1712 237.619 63.49 237.449 62.7661C237.321 62.0423 237.257 61.2546 237.257 60.4031C237.257 58.6148 237.619 57.1034 238.343 55.8686C239.109 54.5913 240.11 53.5694 241.344 52.803C242.622 51.9941 244.069 51.398 245.687 51.0148C247.305 50.6316 248.966 50.44 250.669 50.44C252.968 50.44 255.054 50.8019 256.928 51.5257C258.801 52.2495 260.355 53.3565 261.59 54.8468C262.867 56.337 263.634 58.2317 263.889 60.5308H256.481C256.268 59.4664 255.608 58.6148 254.501 57.9762C253.436 57.3375 252.074 57.0182 250.413 57.0182C249.817 57.0182 249.2 57.0821 248.561 57.2098C247.923 57.295 247.305 57.4653 246.709 57.7207C246.156 57.9336 245.687 58.2742 245.304 58.7426C244.963 59.2109 244.793 59.7857 244.793 60.467C244.793 61.1056 244.942 61.6591 245.24 62.1275C245.581 62.5958 246.07 63.0003 246.709 63.3409C247.39 63.639 248.178 63.8944 249.072 64.1073C250.52 64.4054 252.031 64.7034 253.607 65.0014C255.182 65.2995 256.544 65.5975 257.694 65.8956C259.057 66.2788 260.291 66.8323 261.398 67.5561C262.505 68.2373 263.357 69.1527 263.953 70.3023C264.592 71.4093 264.911 72.8357 264.911 74.5813C264.911 76.6251 264.485 78.3281 263.634 79.6906C262.825 81.0531 261.739 82.1175 260.376 82.8839C259.014 83.6503 257.502 84.2038 255.842 84.5444C254.181 84.8851 252.542 85.0554 250.924 85.0554Z" fill="currentColor"/>
<path d="M218.305 85.0554C216.687 85.0554 215.069 84.8851 213.451 84.5444C211.876 84.2038 210.386 83.6503 208.981 82.8839C207.576 82.0749 206.405 80.9892 205.468 79.6268C204.531 78.2643 203.914 76.5612 203.616 74.5175H211.471C211.812 75.4542 212.344 76.2206 213.068 76.8167C213.835 77.3702 214.707 77.7959 215.687 78.094C216.708 78.3494 217.709 78.4772 218.688 78.4772C219.284 78.4772 219.923 78.4346 220.604 78.3494C221.328 78.2643 221.988 78.094 222.584 77.8385C223.223 77.583 223.734 77.2211 224.117 76.7528C224.5 76.2419 224.692 75.5819 224.692 74.7729C224.692 74.0065 224.479 73.4105 224.053 72.9847C223.627 72.5163 223.053 72.1544 222.329 71.899C221.605 71.6009 220.732 71.3668 219.71 71.1964C217.879 70.8132 215.921 70.4088 213.835 69.983C211.748 69.5146 209.939 68.7908 208.406 67.8115C207.767 67.4284 207.214 66.9813 206.745 66.4704C206.277 65.9594 205.873 65.4059 205.532 64.8098C205.234 64.1712 205 63.49 204.829 62.7661C204.702 62.0423 204.638 61.2546 204.638 60.4031C204.638 58.6148 205 57.1034 205.724 55.8686C206.49 54.5913 207.491 53.5694 208.725 52.803C210.003 51.9941 211.45 51.398 213.068 51.0148C214.686 50.6316 216.347 50.44 218.05 50.44C220.349 50.44 222.435 50.8019 224.309 51.5257C226.182 52.2495 227.736 53.3565 228.971 54.8468C230.248 56.337 231.014 58.2317 231.27 60.5308H223.861C223.649 59.4664 222.989 58.6148 221.882 57.9762C220.817 57.3375 219.455 57.0182 217.794 57.0182C217.198 57.0182 216.581 57.0821 215.942 57.2098C215.303 57.295 214.686 57.4653 214.09 57.7207C213.536 57.9336 213.068 58.2742 212.685 58.7426C212.344 59.2109 212.174 59.7857 212.174 60.467C212.174 61.1056 212.323 61.6591 212.621 62.1275C212.962 62.5958 213.451 63.0003 214.09 63.3409C214.771 63.639 215.559 63.8944 216.453 64.1073C217.901 64.4054 219.412 64.7034 220.988 65.0014C222.563 65.2995 223.925 65.5975 225.075 65.8956C226.437 66.2788 227.672 66.8323 228.779 67.5561C229.886 68.2373 230.738 69.1527 231.334 70.3023C231.972 71.4093 232.292 72.8357 232.292 74.5813C232.292 76.6251 231.866 78.3281 231.014 79.6906C230.205 81.0531 229.12 82.1175 227.757 82.8839C226.395 83.6503 224.883 84.2038 223.223 84.5444C221.562 84.8851 219.923 85.0554 218.305 85.0554Z" fill="currentColor"/>
<path d="M180.147 85.0554C178.572 85.0554 177.081 84.8425 175.676 84.4167C174.271 83.9909 173.015 83.3736 171.908 82.5646C170.801 81.713 169.907 80.6699 169.226 79.4352C168.587 78.1578 168.268 76.6676 168.268 74.9645C168.268 72.7931 168.694 71.0261 169.545 69.6637C170.397 68.2586 171.546 67.1942 172.994 66.4704C174.484 65.7465 176.166 65.2569 178.039 65.0014C179.913 64.7034 181.871 64.5544 183.915 64.5544H190.493C190.493 63.0642 190.259 61.7869 189.791 60.7224C189.322 59.6154 188.577 58.7426 187.555 58.1039C186.576 57.4653 185.299 57.1459 183.723 57.1459C182.702 57.1459 181.744 57.2737 180.849 57.5291C179.998 57.742 179.253 58.1039 178.614 58.6148C178.018 59.0832 177.592 59.7006 177.337 60.467H169.354C169.652 58.7213 170.248 57.2311 171.142 55.9963C172.078 54.719 173.207 53.6759 174.527 52.8669C175.889 52.0579 177.379 51.4619 178.997 51.0787C180.615 50.6529 182.254 50.44 183.915 50.44C188.811 50.44 192.367 51.8451 194.581 54.6552C196.837 57.4653 197.965 61.4037 197.965 66.4704V84.6083H191.068L190.876 80.2654C189.897 81.713 188.726 82.7775 187.364 83.4587C186.001 84.1399 184.681 84.5657 183.404 84.736C182.127 84.9489 181.041 85.0554 180.147 85.0554ZM181.68 78.7326C183.383 78.7326 184.894 78.4133 186.214 77.7746C187.534 77.136 188.577 76.2419 189.344 75.0923C190.153 73.9427 190.557 72.6228 190.557 71.1326V70.0469H184.426C183.404 70.0469 182.382 70.0894 181.36 70.1746C180.381 70.2172 179.487 70.3875 178.678 70.6855C177.869 70.941 177.209 71.3455 176.698 71.899C176.23 72.4525 175.996 73.2402 175.996 74.262C175.996 75.2839 176.251 76.1141 176.762 76.7528C177.316 77.3914 178.018 77.8811 178.87 78.2217C179.764 78.5623 180.7 78.7326 181.68 78.7326Z" fill="currentColor"/>
<path d="M130 96.9983V50.9509H137.281L137.664 55.4854C138.984 53.7397 140.559 52.4624 142.39 51.6535C144.221 50.8445 146.243 50.44 148.457 50.44C151.778 50.44 154.525 51.2064 156.696 52.7392C158.867 54.272 160.485 56.337 161.55 58.9342C162.614 61.5314 163.146 64.4692 163.146 67.7477C163.146 71.0261 162.593 73.9853 161.486 76.625C160.379 79.2223 158.697 81.2873 156.441 82.82C154.226 84.3103 151.438 85.0554 148.074 85.0554C146.499 85.0554 145.051 84.885 143.731 84.5444C142.454 84.2038 141.304 83.7142 140.282 83.0755C139.303 82.4369 138.473 81.713 137.792 80.9041V96.9983H130ZM146.861 78.0301C149.032 78.0301 150.735 77.5618 151.97 76.625C153.205 75.6458 154.099 74.3897 154.652 72.857C155.206 71.2816 155.483 69.6211 155.483 67.8754C155.483 66.0446 155.184 64.3415 154.588 62.7661C154.035 61.1908 153.119 59.9135 151.842 58.9342C150.565 57.9549 148.862 57.4653 146.733 57.4653C144.774 57.4653 143.114 57.9549 141.751 58.9342C140.431 59.8709 139.431 61.1269 138.75 62.7023C138.068 64.2776 137.728 65.9807 137.728 67.8115C137.728 69.6849 138.047 71.4093 138.686 72.9847C139.324 74.5175 140.325 75.7522 141.687 76.6889C143.05 77.583 144.774 78.0301 146.861 78.0301Z" fill="currentColor"/>
<defs>
<clipPath id="clip0_141_217">
<rect width="100" height="100" rx="24" fill="currentColor"/>
</clipPath>
</defs>
</svg>
