<svg width="24" height="24" viewBox="0 0 24 24" fill="none" xmlns="http://www.w3.org/2000/svg">
<g clip-path="url(#clip0_52_222)">
<rect x="3" y="3" width="3" height="3" rx="1" stroke="white"/>
<rect x="8" y="3" width="3" height="3" rx="1" stroke="white"/>
<rect x="3" y="8" width="8" height="3" rx="1" stroke="white"/>
<rect x="21" y="3" width="3" height="3" rx="1" transform="rotate(90 21 3)" stroke="white"/>
<rect x="21" y="8" width="3" height="3" rx="1" transform="rotate(90 21 8)" stroke="white"/>
<rect x="16" y="3" width="8" height="3" rx="1" transform="rotate(90 16 3)" stroke="white"/>
<rect x="21" y="21" width="3" height="3" rx="1" transform="rotate(180 21 21)" stroke="white"/>
<rect x="16" y="21" width="3" height="3" rx="1" transform="rotate(180 16 21)" stroke="white"/>
<rect x="21" y="16" width="8" height="3" rx="1" transform="rotate(180 21 16)" stroke="white"/>
<rect x="3" y="21" width="3" height="3" rx="1" transform="rotate(-90 3 21)" stroke="white"/>
<rect x="3" y="16" width="3" height="3" rx="1" transform="rotate(-90 3 16)" stroke="white"/>
<rect x="8" y="21" width="8" height="3" rx="1" transform="rotate(-90 8 21)" stroke="white"/>
</g>
<defs>
<clipPath id="clip0_52_222">
<rect width="20" height="20" fill="white" transform="translate(2 2)"/>
</clipPath>
</defs>
</svg>
